<?xml version="1.0"?>
<svg xmlns="http://www.w3.org/2000/svg" id="Capa_1" enable-background="new 0 0 512 512" height="512px" viewBox="0 0 512 512" width="512px" class="hovered-paths"><g><path d="m256 512c59.154 0 216.264-112.287 212.52-283.71-2.979-136.362-83.347-228.29-212.52-228.29s-209.541 91.928-212.52 228.29c-3.744 171.423 153.366 283.71 212.52 283.71z" fill="#98db7c" data-original="#98DB7C" class="" style="fill:#00AF80" data-old_color="#98db7c"/><path d="m468.357 223.014c-6.537 161.773-155.189 266.65-212.357 266.65s-205.82-104.877-212.357-266.65c-.065 1.753-.124 3.508-.163 5.276-3.744 171.423 153.366 283.71 212.52 283.71s216.264-112.287 212.52-283.71c-.039-1.768-.098-3.523-.163-5.276z" fill="#82d361" data-original="#82D361" class="" style="fill:#098664" data-old_color="#82d361"/><path d="m160.171 203.249c-34.868-11.143-79.105 26.976-67.998 72.997 12.622 52.3 93.579 69.086 112.357 50.081 23.483-23.767 1.244-108.503-44.359-123.078z" fill="#5a5a5a" data-original="#5A5A5A" class=""/><path d="m204.529 307.747c-18.778 19.005-99.735 2.219-112.357-50.081-.416-1.722-.744-3.431-1.008-5.128-1.187 7.493-.979 15.473 1.008 23.709 12.622 52.3 93.579 69.086 112.357 50.081 8.018-8.115 10.702-23.34 8.95-40.451-1.102 9.171-4.011 16.872-8.95 21.87z" fill="#494949" data-original="#494949" class=""/><path d="m351.829 203.249c34.868-11.143 79.105 26.976 67.998 72.997-12.622 52.3-93.579 69.086-112.357 50.081-23.483-23.767-1.244-108.503 44.359-123.078z" fill="#5a5a5a" data-original="#5A5A5A" class=""/><path d="m419.828 257.666c-12.622 52.3-93.579 69.086-112.357 50.081-4.939-4.998-7.848-12.699-8.95-21.87-1.753 17.111.932 32.336 8.95 40.451 18.778 19.005 99.735 2.219 112.357-50.081 1.988-8.236 2.195-16.216 1.008-23.709-.264 1.697-.593 3.406-1.008 5.128z" fill="#494949" data-original="#494949" class=""/><path d="m286.4 367.453c-.094.138-9.683 13.775-30.4 13.775-20.379 0-30.035-13.262-30.4-13.775-2.419-3.526-7.236-4.426-10.763-2.008s-4.425 7.236-2.008 10.763c.574.837 14.387 20.504 43.171 20.504s42.597-19.667 43.171-20.504c2.417-3.527 1.519-8.345-2.008-10.763-3.526-2.417-8.345-1.518-10.763 2.008z" fill="#ff4755" data-original="#FF4755" class="hovered-path active-path" style="fill:#494949" data-old_color="#ff4755"/></g> </svg>
