<?xml version="1.0"?>
<svg xmlns="http://www.w3.org/2000/svg" height="512px" viewBox="-24 0 512 512" width="512px" class=""><g><path d="m385.820312 391.355469c18.570313-6.027344 33.917969-13.253907 45.714844-21.5 27.148438-18.972657 32.84375-41.050781 32.84375-56.21875 0-48.09375-35.375-313.636719-232.179687-313.636719h-.019531c-196.804688 0-232.179688 265.542969-232.179688 313.636719 0 15.167969 5.695312 37.246093 32.832031 56.21875 11.808594 8.246093 27.15625 15.472656 45.726563 21.5" fill="#bda4e0" data-original="#BDA4E0" class="" style="fill:#2680EF" data-old_color="#bda4e0"/><path d="m94.734375 313.636719c0 15.167969 3.371094 37.246093 19.429687 56.21875 6.992188 8.246093 16.078126 15.472656 27.070313 21.5h-62.675781c-18.570313-6.027344-33.917969-13.253907-45.726563-21.5-27.136719-18.972657-32.832031-41.050781-32.832031-56.21875 0-47.980469 35.207031-312.410157 230.816406-313.6250002-115.3125 2.0625002-136.082031 265.7187502-136.082031 313.6250002zm0 0" fill="#8e66b5" data-original="#8E66B5" class="" style="fill:#0D6CE1" data-old_color="#8e66b5"/><path d="m464.378906 313.636719c0 15.167969-5.695312 37.246093-32.84375 56.21875-11.796875 8.246093-27.144531 15.472656-45.714844 21.5h-307.261718c-18.570313-6.027344-33.917969-13.253907-45.726563-21.5-27.136719-18.972657-32.832031-41.050781-32.832031-56.21875 0-15.179688 5.695312-37.257813 32.839844-56.230469 13.296875-9.292969 31.09375-17.273438 52.910156-23.71875 4.207031-1.246094 8.554688-2.429688 13.023438-3.550781 5.003906-1.265625 10.175781-2.449219 15.492187-3.550781 34.683594-7.222657 75.480469-11.105469 117.921875-11.105469 54.753906 0 106.761719 6.46875 146.449219 18.207031 21.816406 6.445312 39.613281 14.425781 52.910156 23.71875 26.140625 18.28125 32.390625 39.4375 32.808594 54.535156.011719.175782.023437.355469.011719.53125.011718.398438.011718.785156.011718 1.164063zm0 0" fill="#cdcfe0" data-original="#CDCFE0" class=""/><path d="m151.976562 391.355469h-73.417968c-18.570313-6.027344-33.917969-13.253907-45.726563-21.5-27.136719-18.972657-32.832031-41.050781-32.832031-56.21875 0-15.179688 5.695312-37.257813 32.839844-56.230469 13.296875-9.292969 31.09375-17.273438 52.910156-23.71875 4.207031-1.246094 8.554688-2.429688 13.023438-3.550781-37.675782 14.59375.734374 62.613281 30.957031 80.820312 14.636719 8.8125 20.394531 43.757813 22.246093 80.398438zm0 0" fill="#abaec4" data-original="#ABAEC4"/><path d="m422.5 313.632812c0-31.082031-85.203125-56.277343-190.3125-56.277343s-190.3125 25.195312-190.3125 56.277343c0 31.078126 85.203125 56.277344 190.3125 56.277344s190.3125-25.199218 190.3125-56.277344zm0 0" fill="#575f64" data-original="#575F64"/><path d="m390.277344 282.304688v71.605468c0 77.050782-55.117188 141.214844-128.0625 155.230469-8.355469 1.613281-16.929688 2.566406-25.703125 2.808594h-.207031c-1.375.039062-2.746094.050781-4.125.050781-87.320313 0-158.082032-70.78125-158.082032-158.089844v-71.605468c34.160156-15.054688 92.222656-24.949219 158.089844-24.949219 65.871094 0 123.929688 9.894531 158.089844 24.949219zm0 0" fill="#ffd0a6" data-original="#FFD0A6" class=""/><path d="m390.277344 282.304688v36.839843c-34.160156-15.054687-92.21875-24.949219-158.089844-24.949219-65.867188 0-123.929688 9.894532-158.089844 24.949219v-36.839843c34.160156-15.054688 92.222656-24.949219 158.089844-24.949219 65.871094 0 123.929688 9.894531 158.089844 24.949219zm0 0" fill="#e8b182" data-original="#E8B182" class=""/><path d="m260.757812 509.402344c-7.894531 1.457031-15.984374 2.324218-24.246093 2.546875h-.207031c-1.375.039062-2.746094.050781-4.125.050781-87.320313 0-158.082032-70.78125-158.082032-158.089844v-71.605468c14.941406-6.585938 34.453125-12.1875 57.183594-16.394532v88c0 77.554688 55.816406 142.050782 129.476562 155.492188zm0 0" fill="#e8b182" data-original="#E8B182" class=""/><path d="m232.179688 419.023438c-19.808594 0-39.617188-7.542969-54.695313-22.621094-3.066406-3.066406-3.066406-8.039063 0-11.105469s8.035156-3.066406 11.101563 0c24.039062 24.039063 63.148437 24.039063 87.1875 0 3.066406-3.066406 8.035156-3.066406 11.101562 0s3.066406 8.039063 0 11.105469c-15.078125 15.078125-34.886719 22.621094-54.695312 22.621094zm0 0" fill="#fc4549" data-original="#FC4549" class="active-path" style="fill:#D5A275" data-old_color="#fc4549"/><g fill="#2b2f3a"><path d="m163.316406 339.03125c-4.335937 0-7.851562-3.515625-7.851562-7.851562v-38.859376c0-4.335937 3.515625-7.851562 7.851562-7.851562 4.335938 0 7.851563 3.515625 7.851563 7.851562v38.859376c0 4.335937-3.515625 7.851562-7.851563 7.851562zm0 0" data-original="#2B2F3A" class="" style="fill:#2B2F3A"/><path d="m301.0625 339.03125c-4.335938 0-7.851562-3.515625-7.851562-7.851562v-38.859376c0-4.335937 3.515624-7.851562 7.851562-7.851562s7.851562 3.515625 7.851562 7.851562v38.859376c0 4.335937-3.515624 7.851562-7.851562 7.851562zm0 0" data-original="#2B2F3A" class="" style="fill:#2B2F3A"/></g></g> </svg>
