<?xml version="1.0"?>
<svg xmlns="http://www.w3.org/2000/svg" height="512px" viewBox="-59 0 511 511.86429" width="512px" class=""><g><path d="m381.871094 164.472656-52.648438 100.523438c-8.445312 16.058594-14.238281 33.375-17.152344 51.285156-4.695312 30.464844-6.058593 59.730469-13.738281 87.636719-2.980469 11.902343-8.542969 23.003906-16.300781 32.511719v49.835937c-.027344 9.414063-7.652344 17.039063-17.066406 17.066406h-136.53125c-9.414063-.027343-17.039063-7.652343-17.066406-17.066406v-48.984375l.425781-.339844c-2.722657-3.664062-4.933594-7.683594-6.570313-11.945312-1.820312-4.734375-4.644531-9.011719-8.277344-12.546875l-82.945312-78.417969c-3.234375-3.203125-5.046875-7.566406-5.035156-12.117188v-66.050781c0-9.292969 7.433594-16.878906 16.726562-17.066406 6.664063-.089844 13.25 1.429687 19.199219 4.4375 2.382813 1.128906 4.640625 2.503906 6.742187 4.097656 10.742188 8.058594 17.066407 20.703125 17.066407 34.132813v8.53125c.015625 5.371094 2.542969 10.421875 6.828125 13.65625l12.199218 9.128906c4.609376 3.363281 9.917969 5.636719 15.53125 6.65625l21.503907-31.914062c2.375-3.851563 3.085937-8.503907 1.964843-12.886719l-12.714843-50.6875c-1.226563-5.003907-5.078125-8.941407-10.054688-10.273438-4.972656-1.332031-10.277343.152344-13.839843 3.875l-19.625 20.308594c-8.742188 8.761719-22.746094 9.34375-32.183594 1.335937-9.4375-8.007812-11.140625-21.921874-3.914063-31.972656l22.359375-31.828125c2.222656-3.148437 5.4375-5.460937 9.128906-6.570312l45.824219-13.484375c12.105469-3.558594 25 2.238281 30.378907 13.65625l25.769531 54.441406c.347656.71875 1.152343 1.101562 1.929687.917969.777344-.183594 1.324219-.886719 1.3125-1.6875v-179.710938c-.234375-14.136719 11.035156-25.789062 25.175782-26.027343 14.136718-.234376 25.789062 11.035156 26.023437 25.175781l2.816406 188.671875c.054688 1.058594.886719 1.914062 1.941407 2 1.058593.085937 2.015624-.625 2.242187-1.660156l28.5-132.09375 15.703125-69.035157c2.636719-13.761719 15.546875-23.082031 29.4375-21.25 6.925781 1.113281 13.089844 5.027344 17.042969 10.820313 3.957031 5.792968 5.351562 12.960937 3.863281 19.816406l-39.335938 195.839844c-.113281.804687.355469 1.578125 1.125 1.847656.765626.269531 1.617188-.039062 2.03125-.738281l47.53125-92.84375c5.863282-12.691407 20.542969-18.691407 33.621094-13.738281 6.457032 2.734374 11.511719 8 13.976563 14.5625 2.46875 6.566406 2.136719 13.855468-.921875 20.167968zm0 0" fill="#00c6db" data-original="#00C6DB" class="" style="fill:#3AFBFF" data-old_color="#00c6db"/><path d="m381.871094 164.472656-52.648438 100.523438c-8.445312 16.058594-14.238281 33.375-17.152344 51.285156-4.695312 30.464844-6.058593 59.730469-13.738281 87.636719-2.980469 11.902343-8.542969 23.003906-16.300781 32.511719v49.835937c-.027344 9.414063-7.652344 17.039063-17.066406 17.066406h-25.597656c9.414062-.027343 17.035156-7.652343 17.066406-17.066406v-49.835937c7.753906-9.507813 13.320312-20.609376 16.296875-32.511719 7.679687-27.90625 9.046875-57.171875 13.738281-87.636719 2.917969-17.910156 8.707031-35.226562 17.152344-51.285156l52.652344-100.523438c5.804687-11.867187 1.582031-26.199218-9.730469-33.023437 6.726562-4.089844 15-4.722657 22.273437-1.707031 6.457032 2.734374 11.511719 8 13.976563 14.5625 2.46875 6.566406 2.136719 13.855468-.921875 20.167968zm0 0" fill="#00939f" data-original="#00939F" class="active-path" style="fill:#3AC1CA" data-old_color="#00939f"/><path d="m323.84375 39.375-41.8125 199.421875-5.496094-.851563c-4.601562-.710937-8.71875-3.273437-11.386718-7.09375-2.667969-3.820312-3.660157-8.5625-2.742188-13.132812l35.839844-178.34375c2.3125-10.75-2.496094-21.777344-11.949219-27.394531 4.980469-3.039063 10.886719-4.191407 16.640625-3.242188 6.925781 1.113281 13.089844 5.027344 17.042969 10.820313 3.957031 5.792968 5.351562 12.960937 3.863281 19.816406zm0 0" fill="#00939f" data-original="#00939F" class="active-path" style="fill:#3AC1CA" data-old_color="#00939f"/><path d="m327.601562 139.597656-24.988281 48.792969 29.570313-147.226563c1.976562-9.128906.117187-18.671874-5.144532-26.394531-5.261718-7.722656-13.460937-12.941406-22.683593-14.445312-18.332031-2.496094-35.460938 9.644531-39.175781 27.769531l-15.71875 69.117188-16.65625 77.160156-1.972657-132.421875c-.277343-18.851563-15.785156-33.90625-34.636719-33.628907-18.851562.277344-33.90625 15.785157-33.628906 34.636719v149.332031l-12.800781-26.9375c-7.132813-15.261718-24.359375-23.007812-40.507813-18.210937l-45.902343 13.5c-5.5 1.695313-10.28125 5.175781-13.582031 9.890625l-22.324219 31.777344c-5.808594 8.082031-7.550781 18.398437-4.71875 27.9375.042969.128906.117187.238281.152343.367187-12.78125 1.550781-22.40625 12.375-22.449218 25.25v66.089844c0 6.875 2.769531 13.460937 7.679687 18.273437l82.960938 78.386719c2.730469 2.6875 4.84375 5.9375 6.195312 9.523438 1.496094 3.699219 3.359375 7.242187 5.5625 10.570312v47.558594c0 14.136719 11.460938 25.597656 25.601563 25.597656h136.53125c14.140625 0 25.601562-11.460937 25.601562-25.597656v-46.730469c7.503906-9.941406 12.945313-21.28125 16-33.355468 4.84375-19.4375 8.210938-39.214844 10.078125-59.164063 1.152344-9.683594 2.328125-19.496094 3.855469-29.414063 2.773438-16.984374 8.269531-33.40625 16.28125-48.636718l52.769531-100.753906c4.097657-8.421876 4.550781-18.152344 1.257813-26.917969-3.296875-8.761719-10.050782-15.785157-18.679688-19.417969-17.195312-6.8125-36.71875.957031-44.527344 17.722656zm-209.921874 143.15625-18.074219 26.871094c-2.429688-.898438-4.726563-2.121094-6.824219-3.644531l-12.136719-9.15625c-2.148437-1.613281-3.414062-4.140625-3.414062-6.828125v-8.53125c.019531-11.199219-3.667969-22.085938-10.484375-30.96875 3.675781-1.609375 7.023437-3.882813 9.878906-6.707032l19.703125-20.394531c1.476563-1.304687 3.515625-1.773437 5.410156-1.242187 1.898438.53125 3.394531 1.988281 3.976563 3.871094l12.726562 50.730468c.542969 2.019532.273438 4.175782-.753906 6zm247.78125-145.160156c4.351562 1.820312 7.753906 5.371094 9.386718 9.792969 1.625 4.265625 1.433594 9.007812-.535156 13.125l-52.667969 100.550781c-8.871093 16.882812-14.953125 35.09375-18.007812 53.921875-1.558594 10.128906-2.761719 20.136719-3.941407 30.003906-1.78125 19.101563-4.988281 38.042969-9.589843 56.667969-5.265625 19.132812-16.855469 41.941406-42.207031 41.941406-4.710938 0-8.53125 3.820313-8.53125 8.535156 0 4.710938 3.820312 8.53125 8.53125 8.53125 8.953124.039063 17.769531-2.222656 25.601562-6.5625v32.164063c0 4.710937-3.820312 8.53125-8.535156 8.53125h-136.53125c-4.714844 0-8.535156-3.820313-8.535156-8.53125v-31.644531c7.898437 4.113281 16.699218 6.1875 25.601562 6.042968 4.710938 0 8.53125-3.820312 8.53125-8.53125 0-4.714843-3.820312-8.535156-8.53125-8.535156-14.515625.992188-27.859375-7.972656-32.429688-21.785156-2.257812-5.894531-5.785156-11.222656-10.324218-15.609375l-82.773438-78.214844c-1.597656-1.601562-2.488281-3.773437-2.472656-6.035156v-66.089844c-.035156-4.628906 3.65625-8.429687 8.285156-8.53125 9.09375-.066406 17.839844 3.5 24.296875 9.910157 6.453125 6.40625 10.082031 15.125 10.082031 24.222656v8.53125c.019532 8.054687 3.808594 15.632812 10.242188 20.480468l12.167969 9.132813c5.554687 4.042969 11.941406 6.796875 18.695312 8.0625.25.058594.480469.101563.726563.144531 10.3125 1.820313 20.9375.210938 30.25-4.582031 2.730468-1.363281 4.523437-4.078125 4.707031-7.121094s-1.269531-5.957031-3.8125-7.636719c-2.546875-1.683593-5.792969-1.878906-8.523437-.515624-1.46875.707031-2.988282 1.304687-4.546876 1.792968l11.945313-17.726562c3.59375-5.8125 4.675781-12.835938 2.996094-19.464844l-12.699219-50.636719c-2.441406-10.140625-11.523438-17.28125-21.953125-17.261719-6.191406-.058593-12.121094 2.460938-16.378906 6.953126l-19.546875 20.207031c-5.632813 5.515625-14.542969 5.816406-20.535156.695312-5.988282-5.121093-7.078126-13.96875-2.507813-20.386719l22.359375-31.832031c1.113281-1.570312 2.714844-2.726562 4.554688-3.292969l45.78125-13.464843c8.09375-2.410157 16.730468 1.460937 20.320312 9.105469l25.761719 54.40625c2.070312 4.292968 6.824219 6.59375 11.476562 5.546874 4.648438-1.050781 7.960938-5.167968 7.988281-9.933593v-179.863281c-.160156-9.425782 7.355469-17.195313 16.78125-17.351563 9.425782-.160156 17.195313 7.351563 17.351563 16.777344l2.816406 188.589843c.03125 5.433594 4.152344 9.976563 9.5625 10.523438 5.410157.550781 10.363281-3.0625 11.488281-8.382812l28.484376-132.003907 15.726562-69.117187c1.683594-9.3125 10.320312-15.710938 19.722656-14.609375 4.640625.734375 8.769532 3.359375 11.402344 7.25 2.636719 3.890625 3.542969 8.699219 2.503906 13.28125l-39.3125 195.652343c-1.03125 5 1.773438 9.996094 6.582032 11.714844 4.808593 1.71875 10.144531-.367187 12.515624-4.890625l47.609376-93.011719c3.878906-8.597656 13.703124-12.785156 22.59375-9.632812zm0 0" data-original="#000000" class="" style="fill:#000000" data-old_color="#000000"/><path d="m180.84375 281.550781c-3.019531-.433593-6.039062.777344-7.921875 3.171875-1.882813 2.398438-2.347656 5.621094-1.210937 8.449219 1.132812 2.832031 3.691406 4.839844 6.710937 5.273437 15.359375 2.203126 58.023437 13.3125 70.371094 38.035157 2.109375 4.214843 7.234375 5.929687 11.453125 3.820312 4.21875-2.105469 5.929687-7.234375 3.824218-11.449219-18.851562-37.703124-80.617187-46.925781-83.226562-47.300781zm0 0" data-original="#000000" class="" style="fill:#000000" data-old_color="#000000"/><path d="m174.273438 316.210938c-2.84375-1.207032-6.121094-.785157-8.566407 1.109374-2.441406 1.890626-3.671875 4.957032-3.210937 8.015626.460937 3.054687 2.535156 5.625 5.429687 6.714843.375.152344 37.304688 15.546875 37.304688 68.878907 0 4.714843 3.820312 8.535156 8.535156 8.535156 4.710937 0 8.53125-3.820313 8.53125-8.535156 0-64.757813-46.078125-83.933594-48.023437-84.71875zm0 0" data-original="#000000" class="" style="fill:#000000" data-old_color="#000000"/></g> </svg>
